<svg xmlns="http://www.w3.org/2000/svg" width="226" height="32" viewBox="0 0 226 32" fill="none"><g clip-path="url(#clip0_10_100)"><path d="M32 15.46C32 22.8091 26.5793 28.9159 19.5263 29.9927C19.5858 29.6665 19.6025 29.3287 19.5624 28.9864C19.5624 28.9864 19.5203 28.6263 19.4651 28.1549C21.9693 27.7283 24.2301 26.5793 26.022 24.9268C25.9145 24.8374 25.8073 24.7213 25.7017 24.5673C25.2258 23.8729 25.8481 23.1838 25.8481 22.5766C25.8481 21.9809 24.6472 22.0299 24.6032 21.6354C24.4515 20.2691 25.4417 20.2505 25.9696 19.7226C26.4975 19.1947 25.4478 17.9945 24.7698 18.072C24.0872 18.1449 22.1657 17.7567 22.3413 16.2867C22.5552 14.4962 20.0602 14.6541 19.7029 13.8184C19.1821 12.6003 20.0479 11.1061 21.1772 10.7667C22.7768 10.2859 24.3526 8.98094 24.2295 7.52829C24.09 5.88306 23.3454 4.39929 22.1188 3.51788C20.8425 3.00081 19.4662 2.68107 18.0264 2.60039C16.7413 2.65122 15.6114 2.93681 15.663 3.52515C15.7894 4.96693 19.8893 5.34141 19.2013 6.68918C18.8426 7.39177 16.1506 8.3834 16.6534 9.42905C16.9804 10.109 17.7851 9.52625 17.4847 10.8317C17.3465 11.4324 16.8198 12.561 16.0098 12.6339C15.1815 12.7112 14.4918 10.5169 12.2372 10.4449C11.1714 10.4109 9.66985 12.1079 10.9448 13.3119C11.7169 14.041 13.1657 12.4356 13.5934 13.6896C13.8947 14.5734 13.5528 16.4298 14.9592 17.2056C15.4718 17.4884 16.2578 17.735 17.0351 18.13C15.8814 18.3656 14.4637 18.8052 12.7897 19.45L11.3793 19.0779C11.9698 18.5864 12.9291 18.2404 12.6877 17.1664C12.3332 15.5885 9.59346 16.1836 7.70468 14.2949C7.12523 13.7155 5.8893 11.7917 5.89438 9.48039C4.95289 11.2687 4.41704 13.3025 4.41704 15.4601C4.41704 16.1242 4.46771 16.7767 4.56512 17.414C4.5429 17.4137 4.52094 17.4098 4.49877 17.4098C3.90394 17.4098 3.32057 17.5348 2.77992 17.7711C2.66049 17.0179 2.59676 16.2464 2.59676 15.4601C2.59676 7.3537 9.19194 0.758301 17.2983 0.758301C25.4048 0.758196 32 7.35359 32 15.46ZM20.972 19.7451L17.3814 21.3955L17.4371 20.6132L19.7631 19.5631C19.4314 19.5394 19.0876 19.5303 18.7444 19.5303C17.4592 19.5303 15.2879 20.1809 12.8863 21.1341L5.184 19.1025C4.46421 18.9126 3.69788 19.0296 3.06745 19.4256L2.68873 19.6636C2.319 19.8958 2.31508 20.4333 2.68136 20.671L7.31137 23.6749C6.20533 24.2405 5.15597 24.815 4.2309 25.3636L1.85506 24.1058C1.46698 23.9004 1.00815 23.876 0.600572 24.0392L0.375683 24.1294C0.0403105 24.2636 -0.100186 24.6625 0.0770687 24.9773L1.38588 27.3026L1.38645 27.3024C0.89265 27.7272 0.611239 28.0796 0.611239 28.3234C0.611239 29.0531 1.50923 29.2355 2.30076 29.2355C3.71252 29.2355 22.3565 24.9667 22.3565 21.0993C22.3564 20.3334 21.8326 19.9503 20.972 19.7451ZM13.1112 27.2959L17.2138 25.8506C17.3945 25.787 17.5876 25.9074 17.6099 26.0978L17.9696 29.173C18.0594 29.9415 17.6461 30.681 16.9445 31.0072L16.5597 31.186C16.3194 31.2977 16.0344 31.2378 15.8592 31.039L12.9861 27.7752C12.8463 27.6162 12.9114 27.3663 13.1112 27.2959Z" fill="#FFFFFC"></path></g><path d="M47.36 10.3L52.22 22.82C52.4067 23.3 52.6133 23.6333 52.84 23.82C53.08 23.9933 53.2933 24.0867 53.48 24.1V24.5C53.08 24.4733 52.6067 24.46 52.06 24.46C51.5267 24.4467 50.9867 24.44 50.44 24.44C49.8267 24.44 49.2467 24.4467 48.7 24.46C48.1533 24.46 47.72 24.4733 47.4 24.5V24.1C48.08 24.0733 48.5067 23.96 48.68 23.76C48.8667 23.5467 48.8267 23.1 48.56 22.42L45.16 13.12L45.52 12.6L42.48 20.52C42.1867 21.2533 42.0067 21.8533 41.94 22.32C41.8867 22.7867 41.92 23.1467 42.04 23.4C42.1733 23.6533 42.38 23.8333 42.66 23.94C42.9533 24.0333 43.3 24.0867 43.7 24.1V24.5C43.26 24.4733 42.84 24.46 42.44 24.46C42.04 24.4467 41.6333 24.44 41.22 24.44C40.9267 24.44 40.6467 24.4467 40.38 24.46C40.1267 24.46 39.9 24.4733 39.7 24.5V24.1C39.98 24.0467 40.2667 23.8667 40.56 23.56C40.8533 23.2533 41.14 22.7333 41.42 22L45.98 10.3C46.1933 10.3133 46.42 10.32 46.66 10.32C46.9133 10.32 47.1467 10.3133 47.36 10.3ZM48.76 18.74V19.14H42.8L43 18.74H48.76ZM60.2092 10.34C62.8359 10.34 64.7892 10.94 66.0692 12.14C67.3492 13.3267 67.9892 15.0333 67.9892 17.26C67.9892 18.7133 67.6759 19.9867 67.0492 21.08C66.4226 22.16 65.5092 23 64.3092 23.6C63.1226 24.2 61.6959 24.5 60.0292 24.5C59.8159 24.5 59.5359 24.4933 59.1892 24.48C58.8426 24.4667 58.4826 24.46 58.1092 24.46C57.7359 24.4467 57.4026 24.44 57.1092 24.44C56.5226 24.44 55.9426 24.4467 55.3692 24.46C54.8092 24.46 54.3626 24.4733 54.0292 24.5V24.1C54.4559 24.0733 54.7759 24.02 54.9892 23.94C55.2026 23.86 55.3426 23.7 55.4092 23.46C55.4892 23.22 55.5292 22.86 55.5292 22.38V12.46C55.5292 11.9667 55.4892 11.6067 55.4092 11.38C55.3426 11.14 55.1959 10.98 54.9692 10.9C54.7559 10.8067 54.4426 10.7533 54.0292 10.74V10.34C54.3626 10.3533 54.8092 10.3733 55.3692 10.4C55.9426 10.4133 56.5092 10.4133 57.0692 10.4C57.5492 10.3867 58.0892 10.3733 58.6892 10.36C59.3026 10.3467 59.8092 10.34 60.2092 10.34ZM60.1892 10.7C59.5759 10.7 59.1759 10.8133 58.9892 11.04C58.8026 11.2667 58.7092 11.7267 58.7092 12.42V22.42C58.7092 23.1133 58.8026 23.5733 58.9892 23.8C59.1892 24.0267 59.5959 24.14 60.2092 24.14C61.3292 24.14 62.2092 23.88 62.8492 23.36C63.5026 22.8267 63.9692 22.0533 64.2492 21.04C64.5292 20.0267 64.6692 18.7933 64.6692 17.34C64.6692 15.8467 64.5159 14.6133 64.2092 13.64C63.9159 12.6533 63.4426 11.92 62.7892 11.44C62.1359 10.9467 61.2692 10.7 60.1892 10.7ZM82.3873 10.34V10.74C82.094 10.8467 81.7807 11.08 81.4473 11.44C81.1273 11.8 80.8273 12.36 80.5473 13.12L76.3273 24.54C76.2207 24.5267 76.1073 24.52 75.9873 24.52C75.8673 24.52 75.7473 24.52 75.6273 24.52C75.5207 24.52 75.4073 24.52 75.2873 24.52C75.1673 24.52 75.054 24.5267 74.9473 24.54L69.8473 12.02C69.6607 11.54 69.454 11.2133 69.2273 11.04C69.0007 10.8533 68.7873 10.7533 68.5873 10.74V10.34C68.9873 10.3533 69.454 10.3667 69.9873 10.38C70.534 10.3933 71.0807 10.4 71.6273 10.4C72.2407 10.4 72.814 10.3933 73.3473 10.38C73.894 10.3667 74.334 10.3533 74.6673 10.34V10.74C74.2407 10.7533 73.9073 10.8067 73.6673 10.9C73.4273 10.98 73.294 11.14 73.2673 11.38C73.2407 11.6067 73.3207 11.9533 73.5073 12.42L77.1473 21.68L76.7273 22.18L79.4873 14.74C79.8473 13.74 80.034 12.9533 80.0473 12.38C80.0607 11.8067 79.9207 11.3933 79.6273 11.14C79.334 10.8867 78.914 10.7533 78.3673 10.74V10.34C78.8207 10.3533 79.2473 10.3667 79.6473 10.38C80.0473 10.3933 80.454 10.4 80.8673 10.4C81.1607 10.4 81.434 10.3933 81.6873 10.38C81.954 10.3667 82.1873 10.3533 82.3873 10.34ZM93.9667 10.34C93.9134 10.9267 93.8734 11.4933 93.8467 12.04C93.8334 12.5867 93.8267 13.0067 93.8267 13.3C93.8267 13.5667 93.8334 13.82 93.8467 14.06C93.8601 14.3 93.8734 14.5 93.8867 14.66H93.4267C93.2934 13.6867 93.0867 12.92 92.8067 12.36C92.5267 11.7867 92.1601 11.3867 91.7067 11.16C91.2667 10.92 90.7467 10.8 90.1467 10.8H89.3267C88.9401 10.8 88.6467 10.8333 88.4467 10.9C88.2467 10.9667 88.1134 11.1 88.0467 11.3C87.9801 11.5 87.9467 11.8067 87.9467 12.22V22.62C87.9467 23.0333 87.9801 23.34 88.0467 23.54C88.1134 23.74 88.2467 23.8733 88.4467 23.94C88.6467 24.0067 88.9401 24.04 89.3267 24.04H90.3067C90.9067 24.04 91.4334 23.9133 91.8867 23.66C92.3534 23.3933 92.7467 22.9467 93.0667 22.32C93.4001 21.6933 93.6534 20.8467 93.8267 19.78H94.2867C94.2467 20.2067 94.2267 20.7667 94.2267 21.46C94.2267 21.7667 94.2334 22.2 94.2467 22.76C94.2601 23.32 94.3001 23.9 94.3667 24.5C93.6867 24.4733 92.9201 24.46 92.0667 24.46C91.2134 24.4467 90.4534 24.44 89.7867 24.44C89.4534 24.44 89.0267 24.44 88.5067 24.44C87.9867 24.44 87.4267 24.4467 86.8267 24.46C86.2267 24.46 85.6201 24.4667 85.0067 24.48C84.3934 24.48 83.8134 24.4867 83.2667 24.5V24.1C83.6934 24.0733 84.0134 24.02 84.2267 23.94C84.4401 23.86 84.5801 23.7 84.6467 23.46C84.7267 23.22 84.7667 22.86 84.7667 22.38V12.46C84.7667 11.9667 84.7267 11.6067 84.6467 11.38C84.5801 11.14 84.4334 10.98 84.2067 10.9C83.9934 10.8067 83.6801 10.7533 83.2667 10.74V10.34C83.8134 10.3533 84.3934 10.3667 85.0067 10.38C85.6201 10.38 86.2267 10.3867 86.8267 10.4C87.4267 10.4 87.9867 10.4 88.5067 10.4C89.0267 10.4 89.4534 10.4 89.7867 10.4C90.4001 10.4 91.0934 10.4 91.8667 10.4C92.6534 10.3867 93.3534 10.3667 93.9667 10.34ZM90.8467 17.18C90.8467 17.18 90.8467 17.2467 90.8467 17.38C90.8467 17.5133 90.8467 17.58 90.8467 17.58H87.3467C87.3467 17.58 87.3467 17.5133 87.3467 17.38C87.3467 17.2467 87.3467 17.18 87.3467 17.18H90.8467ZM91.4267 14.54C91.3734 15.3 91.3467 15.88 91.3467 16.28C91.3601 16.68 91.3667 17.0467 91.3667 17.38C91.3667 17.7133 91.3734 18.08 91.3867 18.48C91.4001 18.88 91.4334 19.46 91.4867 20.22H91.0267C90.9601 19.7533 90.8334 19.32 90.6467 18.92C90.4734 18.52 90.2201 18.2 89.8867 17.96C89.5534 17.7067 89.1201 17.58 88.5867 17.58V17.18C88.9867 17.18 89.3267 17.1 89.6067 16.94C89.8867 16.7667 90.1134 16.5467 90.2867 16.28C90.4734 16 90.6201 15.7067 90.7267 15.4C90.8334 15.0933 90.9134 14.8067 90.9667 14.54H91.4267ZM109.522 10.34V10.74C109.096 10.7933 108.776 10.9067 108.562 11.08C108.349 11.24 108.202 11.5 108.122 11.86C108.056 12.22 108.022 12.7267 108.022 13.38V24.54C107.862 24.5267 107.696 24.52 107.522 24.52C107.362 24.52 107.189 24.5267 107.002 24.54L98.3225 13.54V21.22C98.3225 21.9533 98.3625 22.52 98.4425 22.92C98.5225 23.3067 98.6958 23.5867 98.9625 23.76C99.2425 23.92 99.6758 24.0333 100.262 24.1V24.5C100.009 24.4733 99.6758 24.46 99.2625 24.46C98.8492 24.4467 98.4625 24.44 98.1025 24.44C97.7958 24.44 97.4825 24.4467 97.1625 24.46C96.8425 24.46 96.5758 24.4733 96.3625 24.5V24.1C96.7892 24.0333 97.1092 23.92 97.3225 23.76C97.5358 23.6 97.6758 23.34 97.7425 22.98C97.8225 22.6067 97.8625 22.1 97.8625 21.46V12.46C97.8625 11.9667 97.8225 11.6067 97.7425 11.38C97.6758 11.14 97.5292 10.98 97.3025 10.9C97.0892 10.8067 96.7758 10.7533 96.3625 10.74V10.34C96.5758 10.3533 96.8425 10.3667 97.1625 10.38C97.4825 10.3933 97.7958 10.4 98.1025 10.4C98.4225 10.4 98.7292 10.3933 99.0225 10.38C99.3158 10.3667 99.5825 10.3533 99.8225 10.34L107.562 19.88V13.62C107.562 12.8867 107.522 12.3267 107.442 11.94C107.362 11.54 107.182 11.2533 106.902 11.08C106.636 10.9067 106.209 10.7933 105.622 10.74V10.34C105.876 10.3533 106.209 10.3667 106.622 10.38C107.036 10.3933 107.422 10.4 107.782 10.4C108.102 10.4 108.416 10.3933 108.722 10.38C109.042 10.3667 109.309 10.3533 109.522 10.34ZM123.336 10.34C123.283 11.02 123.243 11.6733 123.216 12.3C123.203 12.9267 123.196 13.4067 123.196 13.74C123.196 14.0333 123.203 14.3133 123.216 14.58C123.229 14.8467 123.243 15.0733 123.256 15.26H122.796C122.583 14.14 122.309 13.2533 121.976 12.6C121.656 11.9467 121.269 11.4867 120.816 11.22C120.363 10.94 119.829 10.8 119.216 10.8H118.756V22.22C118.756 22.7533 118.809 23.1533 118.916 23.42C119.036 23.6867 119.249 23.8667 119.556 23.96C119.863 24.04 120.309 24.0867 120.896 24.1V24.5C120.483 24.4867 119.929 24.4733 119.236 24.46C118.556 24.4467 117.843 24.44 117.096 24.44C116.363 24.44 115.669 24.4467 115.016 24.46C114.363 24.4733 113.836 24.4867 113.436 24.5V24.1C114.036 24.0867 114.489 24.04 114.796 23.96C115.103 23.8667 115.309 23.6867 115.416 23.42C115.523 23.1533 115.576 22.7533 115.576 22.22V10.8H115.136C114.523 10.8 113.989 10.94 113.536 11.22C113.083 11.4867 112.696 11.9467 112.376 12.6C112.056 13.24 111.776 14.1267 111.536 15.26H111.076C111.103 15.0733 111.116 14.8467 111.116 14.58C111.129 14.3133 111.136 14.0333 111.136 13.74C111.136 13.4067 111.123 12.9267 111.096 12.3C111.083 11.6733 111.049 11.02 110.996 10.34C111.609 10.3533 112.276 10.3667 112.996 10.38C113.729 10.3933 114.463 10.4 115.196 10.4C115.929 10.4 116.589 10.4 117.176 10.4C117.776 10.4 118.436 10.4 119.156 10.4C119.889 10.4 120.623 10.3933 121.356 10.38C122.089 10.3667 122.749 10.3533 123.336 10.34ZM137.675 10.34V10.74C137.249 10.7933 136.922 10.9067 136.695 11.08C136.482 11.24 136.342 11.5 136.275 11.86C136.209 12.22 136.175 12.7267 136.175 13.38V18.68C136.175 19.5467 136.115 20.34 135.995 21.06C135.875 21.78 135.662 22.4 135.355 22.92C135.009 23.4933 134.502 23.9467 133.835 24.28C133.169 24.6133 132.322 24.78 131.295 24.78C130.682 24.78 130.055 24.7067 129.415 24.56C128.775 24.4267 128.202 24.1667 127.695 23.78C127.269 23.42 126.942 23.0133 126.715 22.56C126.489 22.1067 126.335 21.5733 126.255 20.96C126.175 20.3333 126.135 19.5933 126.135 18.74V12.46C126.135 11.9667 126.095 11.6067 126.015 11.38C125.949 11.14 125.809 10.98 125.595 10.9C125.382 10.8067 125.062 10.7533 124.635 10.74V10.34C124.969 10.3533 125.415 10.3667 125.975 10.38C126.549 10.3933 127.142 10.4 127.755 10.4C128.369 10.4 128.955 10.3933 129.515 10.38C130.089 10.3667 130.562 10.3533 130.935 10.34V10.74C130.482 10.7533 130.135 10.8067 129.895 10.9C129.669 10.98 129.515 11.14 129.435 11.38C129.355 11.6067 129.315 11.9667 129.315 12.46V20C129.315 20.6667 129.355 21.26 129.435 21.78C129.529 22.2867 129.675 22.7133 129.875 23.06C130.089 23.3933 130.375 23.6467 130.735 23.82C131.095 23.9933 131.542 24.08 132.075 24.08C133.009 24.08 133.735 23.86 134.255 23.42C134.789 22.98 135.162 22.3733 135.375 21.6C135.602 20.8133 135.715 19.9133 135.715 18.9V13.62C135.715 12.8867 135.669 12.3267 135.575 11.94C135.482 11.54 135.295 11.2533 135.015 11.08C134.749 10.9067 134.335 10.7933 133.775 10.74V10.34C134.029 10.3533 134.362 10.3667 134.775 10.38C135.189 10.3933 135.575 10.4 135.935 10.4C136.255 10.4 136.569 10.3933 136.875 10.38C137.195 10.3667 137.462 10.3533 137.675 10.34ZM139.125 10.34C139.458 10.3533 139.905 10.3667 140.465 10.38C141.038 10.3933 141.605 10.4 142.165 10.4C142.805 10.4 143.425 10.3933 144.025 10.38C144.625 10.3667 145.051 10.36 145.305 10.36C146.545 10.36 147.571 10.5 148.385 10.78C149.211 11.0467 149.825 11.44 150.225 11.96C150.638 12.48 150.845 13.1067 150.845 13.84C150.845 14.2933 150.751 14.7533 150.565 15.22C150.378 15.6733 150.058 16.1 149.605 16.5C149.165 16.8867 148.558 17.2 147.785 17.44C147.011 17.6667 146.038 17.78 144.865 17.78H142.945V17.38H144.665C145.451 17.38 146.045 17.2333 146.445 16.94C146.858 16.6333 147.138 16.2333 147.285 15.74C147.445 15.2333 147.525 14.6733 147.525 14.06C147.525 13.0067 147.338 12.1933 146.965 11.62C146.591 11.0333 145.951 10.74 145.045 10.74C144.525 10.74 144.185 10.8533 144.025 11.08C143.878 11.3067 143.805 11.7667 143.805 12.46V22.38C143.805 22.86 143.838 23.22 143.905 23.46C143.985 23.7 144.131 23.86 144.345 23.94C144.558 24.02 144.878 24.0733 145.305 24.1V24.5C144.945 24.4733 144.491 24.46 143.945 24.46C143.398 24.4467 142.845 24.44 142.285 24.44C141.645 24.44 141.038 24.4467 140.465 24.46C139.905 24.46 139.458 24.4733 139.125 24.5V24.1C139.551 24.0733 139.871 24.02 140.085 23.94C140.298 23.86 140.438 23.7 140.505 23.46C140.585 23.22 140.625 22.86 140.625 22.38V12.46C140.625 11.9667 140.585 11.6067 140.505 11.38C140.438 11.14 140.291 10.98 140.065 10.9C139.851 10.8067 139.538 10.7533 139.125 10.74V10.34ZM142.905 17.44C143.478 17.4533 143.971 17.48 144.385 17.52C144.811 17.56 145.185 17.6 145.505 17.64C145.825 17.6667 146.111 17.6867 146.365 17.7C147.578 17.8067 148.471 18.0667 149.045 18.48C149.631 18.8933 150.011 19.5133 150.185 20.34L150.645 22.4C150.765 22.9333 150.891 23.3067 151.025 23.52C151.158 23.7333 151.351 23.84 151.605 23.84C151.778 23.8267 151.918 23.7867 152.025 23.72C152.145 23.64 152.271 23.5267 152.405 23.38L152.685 23.62C152.325 24.0333 151.938 24.3267 151.525 24.5C151.111 24.6867 150.611 24.78 150.025 24.78C149.305 24.78 148.711 24.6267 148.245 24.32C147.778 24.0133 147.471 23.4467 147.325 22.62L146.965 20.62C146.871 20.06 146.758 19.5733 146.625 19.16C146.491 18.7333 146.305 18.4 146.065 18.16C145.838 17.9067 145.518 17.78 145.105 17.78H142.945L142.905 17.44ZM164.072 10.34C164.019 10.9267 163.979 11.4933 163.952 12.04C163.939 12.5867 163.932 13.0067 163.932 13.3C163.932 13.5667 163.939 13.82 163.952 14.06C163.966 14.3 163.979 14.5 163.992 14.66H163.532C163.399 13.6867 163.192 12.92 162.912 12.36C162.632 11.7867 162.266 11.3867 161.812 11.16C161.372 10.92 160.852 10.8 160.252 10.8H159.432C159.046 10.8 158.752 10.8333 158.552 10.9C158.352 10.9667 158.219 11.1 158.152 11.3C158.086 11.5 158.052 11.8067 158.052 12.22V22.62C158.052 23.0333 158.086 23.34 158.152 23.54C158.219 23.74 158.352 23.8733 158.552 23.94C158.752 24.0067 159.046 24.04 159.432 24.04H160.412C161.012 24.04 161.539 23.9133 161.992 23.66C162.459 23.3933 162.852 22.9467 163.172 22.32C163.506 21.6933 163.759 20.8467 163.932 19.78H164.392C164.352 20.2067 164.332 20.7667 164.332 21.46C164.332 21.7667 164.339 22.2 164.352 22.76C164.366 23.32 164.406 23.9 164.472 24.5C163.792 24.4733 163.026 24.46 162.172 24.46C161.319 24.4467 160.559 24.44 159.892 24.44C159.559 24.44 159.132 24.44 158.612 24.44C158.092 24.44 157.532 24.4467 156.932 24.46C156.332 24.46 155.726 24.4667 155.112 24.48C154.499 24.48 153.919 24.4867 153.372 24.5V24.1C153.799 24.0733 154.119 24.02 154.332 23.94C154.546 23.86 154.686 23.7 154.752 23.46C154.832 23.22 154.872 22.86 154.872 22.38V12.46C154.872 11.9667 154.832 11.6067 154.752 11.38C154.686 11.14 154.539 10.98 154.312 10.9C154.099 10.8067 153.786 10.7533 153.372 10.74V10.34C153.919 10.3533 154.499 10.3667 155.112 10.38C155.726 10.38 156.332 10.3867 156.932 10.4C157.532 10.4 158.092 10.4 158.612 10.4C159.132 10.4 159.559 10.4 159.892 10.4C160.506 10.4 161.199 10.4 161.972 10.4C162.759 10.3867 163.459 10.3667 164.072 10.34ZM160.952 17.18C160.952 17.18 160.952 17.2467 160.952 17.38C160.952 17.5133 160.952 17.58 160.952 17.58H157.452C157.452 17.58 157.452 17.5133 157.452 17.38C157.452 17.2467 157.452 17.18 157.452 17.18H160.952ZM161.532 14.54C161.479 15.3 161.452 15.88 161.452 16.28C161.466 16.68 161.472 17.0467 161.472 17.38C161.472 17.7133 161.479 18.08 161.492 18.48C161.506 18.88 161.539 19.46 161.592 20.22H161.132C161.066 19.7533 160.939 19.32 160.752 18.92C160.579 18.52 160.326 18.2 159.992 17.96C159.659 17.7067 159.226 17.58 158.692 17.58V17.18C159.092 17.18 159.432 17.1 159.712 16.94C159.992 16.7667 160.219 16.5467 160.392 16.28C160.579 16 160.726 15.7067 160.832 15.4C160.939 15.0933 161.019 14.8067 161.072 14.54H161.532ZM177.415 10.3L182.275 22.82C182.461 23.3 182.668 23.6333 182.895 23.82C183.135 23.9933 183.348 24.0867 183.535 24.1V24.5C183.135 24.4733 182.661 24.46 182.115 24.46C181.581 24.4467 181.041 24.44 180.495 24.44C179.881 24.44 179.301 24.4467 178.755 24.46C178.208 24.46 177.775 24.4733 177.455 24.5V24.1C178.135 24.0733 178.561 23.96 178.735 23.76C178.921 23.5467 178.881 23.1 178.615 22.42L175.215 13.12L175.575 12.6L172.535 20.52C172.241 21.2533 172.061 21.8533 171.995 22.32C171.941 22.7867 171.975 23.1467 172.095 23.4C172.228 23.6533 172.435 23.8333 172.715 23.94C173.008 24.0333 173.355 24.0867 173.755 24.1V24.5C173.315 24.4733 172.895 24.46 172.495 24.46C172.095 24.4467 171.688 24.44 171.275 24.44C170.981 24.44 170.701 24.4467 170.435 24.46C170.181 24.46 169.955 24.4733 169.755 24.5V24.1C170.035 24.0467 170.321 23.8667 170.615 23.56C170.908 23.2533 171.195 22.7333 171.475 22L176.035 10.3C176.248 10.3133 176.475 10.32 176.715 10.32C176.968 10.32 177.201 10.3133 177.415 10.3ZM178.815 18.74V19.14H172.855L173.055 18.74H178.815ZM197.215 10.34V10.74C196.788 10.7933 196.461 10.9067 196.235 11.08C196.021 11.24 195.881 11.5 195.815 11.86C195.748 12.22 195.715 12.7267 195.715 13.38V18.68C195.715 19.5467 195.655 20.34 195.535 21.06C195.415 21.78 195.201 22.4 194.895 22.92C194.548 23.4933 194.041 23.9467 193.375 24.28C192.708 24.6133 191.861 24.78 190.835 24.78C190.221 24.78 189.595 24.7067 188.955 24.56C188.315 24.4267 187.741 24.1667 187.235 23.78C186.808 23.42 186.481 23.0133 186.255 22.56C186.028 22.1067 185.875 21.5733 185.795 20.96C185.715 20.3333 185.675 19.5933 185.675 18.74V12.46C185.675 11.9667 185.635 11.6067 185.555 11.38C185.488 11.14 185.348 10.98 185.135 10.9C184.921 10.8067 184.601 10.7533 184.175 10.74V10.34C184.508 10.3533 184.955 10.3667 185.515 10.38C186.088 10.3933 186.681 10.4 187.295 10.4C187.908 10.4 188.495 10.3933 189.055 10.38C189.628 10.3667 190.101 10.3533 190.475 10.34V10.74C190.021 10.7533 189.675 10.8067 189.435 10.9C189.208 10.98 189.055 11.14 188.975 11.38C188.895 11.6067 188.855 11.9667 188.855 12.46V20C188.855 20.6667 188.895 21.26 188.975 21.78C189.068 22.2867 189.215 22.7133 189.415 23.06C189.628 23.3933 189.915 23.6467 190.275 23.82C190.635 23.9933 191.081 24.08 191.615 24.08C192.548 24.08 193.275 23.86 193.795 23.42C194.328 22.98 194.701 22.3733 194.915 21.6C195.141 20.8133 195.255 19.9133 195.255 18.9V13.62C195.255 12.8867 195.208 12.3267 195.115 11.94C195.021 11.54 194.835 11.2533 194.555 11.08C194.288 10.9067 193.875 10.7933 193.315 10.74V10.34C193.568 10.3533 193.901 10.3667 194.315 10.38C194.728 10.3933 195.115 10.4 195.475 10.4C195.795 10.4 196.108 10.3933 196.415 10.38C196.735 10.3667 197.001 10.3533 197.215 10.34ZM198.664 10.34C198.997 10.3533 199.444 10.3667 200.004 10.38C200.577 10.3933 201.144 10.4 201.704 10.4C202.344 10.4 202.964 10.3933 203.564 10.38C204.164 10.3667 204.59 10.36 204.844 10.36C206.084 10.36 207.11 10.5 207.924 10.78C208.75 11.0467 209.364 11.44 209.764 11.96C210.177 12.48 210.384 13.1067 210.384 13.84C210.384 14.2933 210.29 14.7533 210.104 15.22C209.917 15.6733 209.597 16.1 209.144 16.5C208.704 16.8867 208.097 17.2 207.324 17.44C206.55 17.6667 205.577 17.78 204.404 17.78H202.484V17.38H204.204C204.99 17.38 205.584 17.2333 205.984 16.94C206.397 16.6333 206.677 16.2333 206.824 15.74C206.984 15.2333 207.064 14.6733 207.064 14.06C207.064 13.0067 206.877 12.1933 206.504 11.62C206.13 11.0333 205.49 10.74 204.584 10.74C204.064 10.74 203.724 10.8533 203.564 11.08C203.417 11.3067 203.344 11.7667 203.344 12.46V22.38C203.344 22.86 203.377 23.22 203.444 23.46C203.524 23.7 203.67 23.86 203.884 23.94C204.097 24.02 204.417 24.0733 204.844 24.1V24.5C204.484 24.4733 204.03 24.46 203.484 24.46C202.937 24.4467 202.384 24.44 201.824 24.44C201.184 24.44 200.577 24.4467 200.004 24.46C199.444 24.46 198.997 24.4733 198.664 24.5V24.1C199.09 24.0733 199.41 24.02 199.624 23.94C199.837 23.86 199.977 23.7 200.044 23.46C200.124 23.22 200.164 22.86 200.164 22.38V12.46C200.164 11.9667 200.124 11.6067 200.044 11.38C199.977 11.14 199.83 10.98 199.604 10.9C199.39 10.8067 199.077 10.7533 198.664 10.74V10.34ZM202.444 17.44C203.017 17.4533 203.51 17.48 203.924 17.52C204.35 17.56 204.724 17.6 205.044 17.64C205.364 17.6667 205.65 17.6867 205.904 17.7C207.117 17.8067 208.01 18.0667 208.584 18.48C209.17 18.8933 209.55 19.5133 209.724 20.34L210.184 22.4C210.304 22.9333 210.43 23.3067 210.564 23.52C210.697 23.7333 210.89 23.84 211.144 23.84C211.317 23.8267 211.457 23.7867 211.564 23.72C211.684 23.64 211.81 23.5267 211.944 23.38L212.224 23.62C211.864 24.0333 211.477 24.3267 211.064 24.5C210.65 24.6867 210.15 24.78 209.564 24.78C208.844 24.78 208.25 24.6267 207.784 24.32C207.317 24.0133 207.01 23.4467 206.864 22.62L206.504 20.62C206.41 20.06 206.297 19.5733 206.164 19.16C206.03 18.7333 205.844 18.4 205.604 18.16C205.377 17.9067 205.057 17.78 204.644 17.78H202.484L202.444 17.44ZM219.591 10.3L224.451 22.82C224.638 23.3 224.845 23.6333 225.071 23.82C225.311 23.9933 225.525 24.0867 225.711 24.1V24.5C225.311 24.4733 224.838 24.46 224.291 24.46C223.758 24.4467 223.218 24.44 222.671 24.44C222.058 24.44 221.478 24.4467 220.931 24.46C220.385 24.46 219.951 24.4733 219.631 24.5V24.1C220.311 24.0733 220.738 23.96 220.911 23.76C221.098 23.5467 221.058 23.1 220.791 22.42L217.391 13.12L217.751 12.6L214.711 20.52C214.418 21.2533 214.238 21.8533 214.171 22.32C214.118 22.7867 214.151 23.1467 214.271 23.4C214.405 23.6533 214.611 23.8333 214.891 23.94C215.185 24.0333 215.531 24.0867 215.931 24.1V24.5C215.491 24.4733 215.071 24.46 214.671 24.46C214.271 24.4467 213.865 24.44 213.451 24.44C213.158 24.44 212.878 24.4467 212.611 24.46C212.358 24.46 212.131 24.4733 211.931 24.5V24.1C212.211 24.0467 212.498 23.8667 212.791 23.56C213.085 23.2533 213.371 22.7333 213.651 22L218.211 10.3C218.425 10.3133 218.651 10.32 218.891 10.32C219.145 10.32 219.378 10.3133 219.591 10.3ZM220.991 18.74V19.14H215.031L215.231 18.74H220.991Z" fill="#FFFFFC"></path><defs><clipPath id="clip0_10_100"><rect width="32" height="32" fill="white"></rect></clipPath></defs></svg>